<svg width="46" height="46" viewBox="0 0 46 46" fill="none" xmlns="http://www.w3.org/2000/svg">
<path d="M23 46C35.7025 46 46 35.7025 46 23C46 10.2975 35.7025 0 23 0C10.2975 0 0 10.2975 0 23C0 35.7025 10.2975 46 23 46Z" fill="#222222"/>
<path fill-rule="evenodd" clip-rule="evenodd" d="M22.1315 33.0876H23.9368C23.9368 33.0876 24.482 33.0278 24.7604 32.7276C25.0167 32.4521 25.0085 31.9347 25.0085 31.9347C25.0085 31.9347 24.9732 29.5124 26.0974 29.1557C27.2057 28.8044 28.6288 31.4968 30.1371 32.5321C31.2777 33.3156 32.1445 33.1438 32.1445 33.1438L36.1776 33.0876C36.1776 33.0876 38.2875 32.9576 37.2871 31.2988C37.2051 31.1631 36.7045 30.0717 34.2883 27.829C31.7595 25.4818 32.0981 25.8614 35.1444 21.8012C36.9997 19.3285 37.7413 17.8189 37.5097 17.1724C37.2887 16.5565 35.9242 16.7193 35.9242 16.7193L31.3831 16.7476C31.3831 16.7476 31.0465 16.7017 30.7968 16.8509C30.5529 16.9973 30.3958 17.3384 30.3958 17.3384C30.3958 17.3384 29.6771 19.2519 28.7185 20.8791C26.6964 24.3129 25.8879 24.4941 25.5575 24.2809C24.7887 23.784 24.9806 22.2846 24.9806 21.2194C24.9806 17.8919 25.4853 16.5045 23.9978 16.1453C23.5042 16.026 23.1409 15.9473 21.8786 15.9346C20.2583 15.9178 18.8868 15.9395 18.1103 16.32C17.5937 16.5729 17.1952 17.1367 17.4379 17.1691C17.738 17.2093 18.4178 17.3523 18.7782 17.8431C19.2435 18.4761 19.2271 19.898 19.2271 19.898C19.2271 19.898 19.4944 23.8151 18.6027 24.3018C17.9906 24.6355 17.1509 23.9541 15.3481 20.839C14.4244 19.2433 13.727 17.4794 13.727 17.4794C13.727 17.4794 13.5925 17.1498 13.3527 16.9735C13.0616 16.7599 12.6549 16.6918 12.6549 16.6918L8.33965 16.7201C8.33965 16.7201 7.69186 16.7382 7.45406 17.0198C7.2425 17.2703 7.43725 17.7886 7.43725 17.7886C7.43725 17.7886 10.8156 25.6925 14.6409 29.6756C18.1484 33.3275 22.1315 33.0876 22.1315 33.0876Z" fill="white"/>
</svg>
