<svg width="46" height="46" viewBox="0 0 46 46" fill="none" xmlns="http://www.w3.org/2000/svg">
<path d="M23 0C12.5967 0 4.13281 8.46391 4.13281 18.8672C4.13281 27.2549 9.65996 34.6088 17.649 36.964L21.7945 45.2549C22.0229 45.7115 22.4894 46 23 46C23.5103 46 23.9771 45.7115 24.2052 45.2549L28.3506 36.9644C36.34 34.6091 41.8672 27.2553 41.8672 18.8672C41.8672 8.46391 33.4033 0 23 0V0ZM23 24.2578C20.0274 24.2578 17.6094 21.8398 17.6094 18.8672C17.6094 15.8946 20.0274 13.4766 23 13.4766C25.9726 13.4766 28.3906 15.8946 28.3906 18.8672C28.3906 21.8398 25.9726 24.2578 23 24.2578Z" fill="#D32F2F"/>
</svg>
