<svg height="512" viewBox="0 0 64 64" width="512" xmlns="http://www.w3.org/2000/svg"><g fill="#fff"><path d="M53 40v19a2.006 2.006 0 01-2 2H13a2.006 2.006 0 01-2-2v-2h36a2.006 2.006 0 002-2V40zM53 9v7h-4V7h2a2.006 2.006 0 012 2zM55 16H17a2.006 2.006 0 00-2 2v20a2.006 2.006 0 002 2h38a2.006 2.006 0 002-2V18a2.006 2.006 0 00-2-2zM17 3v7l-2-3-2 3V3z"/></g><path d="M42 23v11h2v-6h4v-2h-4v-2h5v-2h-6a1 1 0 00-1 1zM27 22h-4a1 1 0 00-1 1v11h2v-5h3a3 3 0 003-3v-1a3 3 0 00-3-3zm1 4a1 1 0 01-1 1h-3v-3h3a1 1 0 011 1zM37 22h-4a1 1 0 00-1 1v10a1 1 0 001 1h4a3 3 0 003-3v-6a3 3 0 00-3-3zm1 9a1 1 0 01-1 1h-3v-8h3a1 1 0 011 1z" fill="#e72a32"/><path d="M55 15h-1V9a3 3 0 00-3-3h-1V5a3 3 0 00-3-3H9a3 3 0 00-3 3v50a3 3 0 003 3h1v1a3 3 0 003 3h38a3 3 0 003-3V41h1a3 3 0 003-3V18a3 3 0 00-3-3zm-4-7a1 1 0 011 1v6h-2V8zM14 4h2v2.7l-.168-.252a1.039 1.039 0 00-1.664 0L14 6.7zM8 55V5a1 1 0 011-1h3v6a1 1 0 001.832.555L15 8.8l1.168 1.752A1 1 0 0018 10V4h29a1 1 0 011 1v10H17a3 3 0 00-3 3v20a3 3 0 003 3h31v14a1 1 0 01-1 1H9a1 1 0 01-1-1zm44 4a1 1 0 01-1 1H13a1 1 0 01-1-1v-1h35a3 3 0 003-3V41h2zm4-21a1 1 0 01-1 1H17a1 1 0 01-1-1V18a1 1 0 011-1h38a1 1 0 011 1z" fill="#e72a32"/></svg>