<svg width="46" height="46" fill="none" xmlns="http://www.w3.org/2000/svg"><path d="M23 46c12.703 0 23-10.297 23-23S35.703 0 23 0 0 10.297 0 23s10.297 23 23 23z" fill="#222"/><path fill-rule="evenodd" clip-rule="evenodd" d="M22.131 33.088h1.806s.545-.06.823-.36c.257-.276.248-.793.248-.793s-.035-2.423 1.09-2.78c1.108-.35 2.53 2.342 4.04 3.377 1.14.784 2.006.612 2.006.612l4.034-.056s2.11-.13 1.11-1.79c-.083-.135-.583-1.226-3-3.469-2.528-2.347-2.19-1.968.856-6.028 1.856-2.473 2.597-3.982 2.366-4.629-.221-.616-1.586-.453-1.586-.453l-4.54.029s-.337-.046-.587.103c-.244.146-.401.487-.401.487s-.719 1.914-1.678 3.541c-2.022 3.434-2.83 3.615-3.16 3.402-.77-.497-.577-1.996-.577-3.062 0-3.327.504-4.715-.983-5.074-.494-.119-.857-.198-2.12-.21-1.62-.017-2.991.005-3.768.385-.516.253-.915.817-.672.85.3.04.98.182 1.34.673.466.633.45 2.055.45 2.055s.266 3.917-.625 4.404c-.612.334-1.452-.348-3.255-3.463-.924-1.596-1.621-3.36-1.621-3.36s-.135-.33-.374-.505c-.291-.214-.698-.282-.698-.282l-4.315.028s-.648.018-.886.3c-.212.25-.017.769-.017.769s3.379 7.903 7.204 11.887c3.507 3.652 7.49 3.412 7.49 3.412z" fill="#fff"/></svg>